<mxfile host="app.diagrams.net" modified="2022-01-25T13:35:02.160Z" agent="5.0 (Windows NT 10.0; Win64; x64) AppleWebKit/537.36 (KHTML, like Gecko) Chrome/97.0.4692.99 Safari/537.36" etag="xqEIBjTxghkEr31UogDC" version="16.4.6" type="github">
  <diagram id="syEYnTGa5qkVXeOFThf1" name="Page-1">
    <mxGraphModel dx="870" dy="618" grid="1" gridSize="10" guides="1" tooltips="1" connect="1" arrows="1" fold="1" page="1" pageScale="1" pageWidth="850" pageHeight="1100" math="0" shadow="0">
      <root>
        <mxCell id="0" />
        <mxCell id="1" parent="0" />
      </root>
    </mxGraphModel>
  </diagram>
</mxfile>
